<?xml version="1.0" encoding="UTF-8"?>
<svg xmlns="http://www.w3.org/2000/svg" xmlns:xlink="http://www.w3.org/1999/xlink" width="149.359pt" height="26.042pt" viewBox="0 0 149.359 26.042">
<defs>
<g>
<g id="glyph-0-0">
<path d="M 0.453125 1.21875 C 0.375 1.5625 0.34375 1.625 -0.09375 1.625 C -0.203125 1.625 -0.3125 1.625 -0.3125 1.8125 C -0.3125 1.890625 -0.265625 1.9375 -0.1875 1.9375 C 0.078125 1.9375 0.375 1.90625 0.640625 1.90625 C 0.984375 1.90625 1.3125 1.9375 1.640625 1.9375 C 1.6875 1.9375 1.8125 1.9375 1.8125 1.734375 C 1.8125 1.625 1.71875 1.625 1.578125 1.625 C 1.078125 1.625 1.078125 1.5625 1.078125 1.46875 C 1.078125 1.34375 1.5 -0.28125 1.5625 -0.53125 C 1.6875 -0.234375 1.96875 0.109375 2.484375 0.109375 C 3.640625 0.109375 4.890625 -1.34375 4.890625 -2.8125 C 4.890625 -3.75 4.3125 -4.40625 3.5625 -4.40625 C 3.0625 -4.40625 2.578125 -4.046875 2.25 -3.65625 C 2.15625 -4.203125 1.71875 -4.40625 1.359375 -4.40625 C 0.890625 -4.40625 0.703125 -4.015625 0.625 -3.84375 C 0.4375 -3.5 0.3125 -2.90625 0.3125 -2.875 C 0.3125 -2.765625 0.40625 -2.765625 0.421875 -2.765625 C 0.53125 -2.765625 0.53125 -2.78125 0.59375 -3 C 0.765625 -3.703125 0.96875 -4.1875 1.328125 -4.1875 C 1.5 -4.1875 1.640625 -4.109375 1.640625 -3.734375 C 1.640625 -3.5 1.609375 -3.390625 1.5625 -3.21875 Z M 2.203125 -3.109375 C 2.265625 -3.375 2.546875 -3.65625 2.71875 -3.8125 C 3.078125 -4.109375 3.359375 -4.1875 3.53125 -4.1875 C 3.921875 -4.1875 4.171875 -3.84375 4.171875 -3.25 C 4.171875 -2.65625 3.84375 -1.515625 3.65625 -1.140625 C 3.3125 -0.4375 2.84375 -0.109375 2.46875 -0.109375 C 1.8125 -0.109375 1.6875 -0.9375 1.6875 -1 C 1.6875 -1.015625 1.6875 -1.03125 1.71875 -1.15625 Z M 2.203125 -3.109375 "/>
</g>
<g id="glyph-0-1">
<path d="M 2.859375 -6.8125 C 2.859375 -6.8125 2.859375 -6.921875 2.734375 -6.921875 C 2.5 -6.921875 1.78125 -6.84375 1.515625 -6.8125 C 1.4375 -6.8125 1.328125 -6.796875 1.328125 -6.625 C 1.328125 -6.5 1.421875 -6.5 1.5625 -6.5 C 2.046875 -6.5 2.0625 -6.4375 2.0625 -6.328125 L 2.03125 -6.125 L 0.59375 -0.390625 C 0.546875 -0.25 0.546875 -0.234375 0.546875 -0.171875 C 0.546875 0.0625 0.75 0.109375 0.84375 0.109375 C 0.96875 0.109375 1.109375 0.015625 1.171875 -0.09375 C 1.21875 -0.1875 1.671875 -2.03125 1.734375 -2.28125 C 2.078125 -2.25 2.890625 -2.09375 2.890625 -1.4375 C 2.890625 -1.359375 2.890625 -1.328125 2.859375 -1.21875 C 2.84375 -1.109375 2.828125 -0.984375 2.828125 -0.875 C 2.828125 -0.296875 3.21875 0.109375 3.734375 0.109375 C 4.03125 0.109375 4.3125 -0.046875 4.53125 -0.421875 C 4.78125 -0.859375 4.890625 -1.40625 4.890625 -1.421875 C 4.890625 -1.53125 4.796875 -1.53125 4.765625 -1.53125 C 4.671875 -1.53125 4.65625 -1.484375 4.625 -1.34375 C 4.421875 -0.625 4.203125 -0.109375 3.765625 -0.109375 C 3.5625 -0.109375 3.4375 -0.21875 3.4375 -0.578125 C 3.4375 -0.75 3.484375 -0.984375 3.515625 -1.140625 C 3.5625 -1.3125 3.5625 -1.34375 3.5625 -1.453125 C 3.5625 -2.09375 2.9375 -2.375 2.078125 -2.5 C 2.390625 -2.671875 2.71875 -2.984375 2.9375 -3.234375 C 3.421875 -3.765625 3.875 -4.1875 4.359375 -4.1875 C 4.421875 -4.1875 4.4375 -4.1875 4.453125 -4.171875 C 4.578125 -4.15625 4.578125 -4.15625 4.671875 -4.09375 C 4.6875 -4.09375 4.6875 -4.078125 4.703125 -4.0625 C 4.234375 -4.03125 4.140625 -3.640625 4.140625 -3.515625 C 4.140625 -3.359375 4.25 -3.171875 4.515625 -3.171875 C 4.78125 -3.171875 5.0625 -3.390625 5.0625 -3.78125 C 5.0625 -4.078125 4.828125 -4.40625 4.390625 -4.40625 C 4.109375 -4.40625 3.65625 -4.328125 2.9375 -3.53125 C 2.59375 -3.15625 2.203125 -2.75 1.828125 -2.609375 Z M 2.859375 -6.8125 "/>
</g>
<g id="glyph-0-2">
<path d="M 1.90625 -0.53125 C 1.90625 -0.8125 1.671875 -1.0625 1.390625 -1.0625 C 1.09375 -1.0625 0.859375 -0.8125 0.859375 -0.53125 C 0.859375 -0.234375 1.09375 0 1.390625 0 C 1.671875 0 1.90625 -0.234375 1.90625 -0.53125 Z M 1.90625 -0.53125 "/>
</g>
<g id="glyph-0-3">
<path d="M 4.828125 -4.09375 L 4 -6.078125 C 3.96875 -6.15625 3.953125 -6.203125 3.953125 -6.203125 C 3.953125 -6.265625 4.109375 -6.453125 4.53125 -6.5 C 4.640625 -6.515625 4.734375 -6.515625 4.734375 -6.6875 C 4.734375 -6.8125 4.609375 -6.8125 4.578125 -6.8125 C 4.171875 -6.8125 3.75 -6.78125 3.328125 -6.78125 C 3.078125 -6.78125 2.46875 -6.8125 2.21875 -6.8125 C 2.15625 -6.8125 2.03125 -6.8125 2.03125 -6.609375 C 2.03125 -6.5 2.140625 -6.5 2.265625 -6.5 C 2.859375 -6.5 2.921875 -6.40625 3.015625 -6.1875 L 4.1875 -3.40625 L 2.078125 -1.140625 L 1.953125 -1.03125 C 1.46875 -0.5 1 -0.34375 0.484375 -0.3125 C 0.359375 -0.296875 0.265625 -0.296875 0.265625 -0.109375 C 0.265625 -0.09375 0.265625 0 0.40625 0 C 0.703125 0 1.03125 -0.03125 1.328125 -0.03125 C 1.703125 -0.03125 2.09375 0 2.453125 0 C 2.515625 0 2.625 0 2.625 -0.203125 C 2.625 -0.296875 2.53125 -0.3125 2.515625 -0.3125 C 2.421875 -0.3125 2.109375 -0.34375 2.109375 -0.625 C 2.109375 -0.78125 2.265625 -0.9375 2.375 -1.0625 L 3.40625 -2.140625 L 4.296875 -3.125 L 5.296875 -0.734375 C 5.34375 -0.625 5.359375 -0.625 5.359375 -0.59375 C 5.359375 -0.515625 5.15625 -0.34375 4.78125 -0.3125 C 4.671875 -0.296875 4.578125 -0.296875 4.578125 -0.125 C 4.578125 0 4.6875 0 4.71875 0 C 5 0 5.703125 -0.03125 5.984375 -0.03125 C 6.234375 -0.03125 6.84375 0 7.09375 0 C 7.15625 0 7.28125 0 7.28125 -0.1875 C 7.28125 -0.3125 7.171875 -0.3125 7.09375 -0.3125 C 6.4375 -0.3125 6.40625 -0.34375 6.234375 -0.75 C 5.859375 -1.671875 5.1875 -3.234375 4.953125 -3.828125 C 5.625 -4.53125 6.671875 -5.71875 7 -5.984375 C 7.28125 -6.234375 7.671875 -6.46875 8.265625 -6.5 C 8.390625 -6.515625 8.484375 -6.515625 8.484375 -6.703125 C 8.484375 -6.703125 8.484375 -6.8125 8.359375 -6.8125 C 8.0625 -6.8125 7.71875 -6.78125 7.421875 -6.78125 C 7.046875 -6.78125 6.671875 -6.8125 6.3125 -6.8125 C 6.25 -6.8125 6.125 -6.8125 6.125 -6.609375 C 6.125 -6.546875 6.171875 -6.515625 6.234375 -6.5 C 6.328125 -6.484375 6.640625 -6.46875 6.640625 -6.1875 C 6.640625 -6.046875 6.53125 -5.921875 6.453125 -5.828125 Z M 4.828125 -4.09375 "/>
</g>
<g id="glyph-1-0">
<path d="M 3.59375 -2.21875 C 3.59375 -2.984375 3.5 -3.546875 3.1875 -4.03125 C 2.96875 -4.34375 2.53125 -4.625 1.984375 -4.625 C 0.359375 -4.625 0.359375 -2.71875 0.359375 -2.21875 C 0.359375 -1.71875 0.359375 0.140625 1.984375 0.140625 C 3.59375 0.140625 3.59375 -1.71875 3.59375 -2.21875 Z M 1.984375 -0.0625 C 1.65625 -0.0625 1.234375 -0.25 1.09375 -0.8125 C 1 -1.21875 1 -1.796875 1 -2.3125 C 1 -2.828125 1 -3.359375 1.09375 -3.734375 C 1.25 -4.28125 1.6875 -4.4375 1.984375 -4.4375 C 2.359375 -4.4375 2.71875 -4.203125 2.84375 -3.796875 C 2.953125 -3.421875 2.96875 -2.921875 2.96875 -2.3125 C 2.96875 -1.796875 2.96875 -1.28125 2.875 -0.84375 C 2.734375 -0.203125 2.265625 -0.0625 1.984375 -0.0625 Z M 1.984375 -0.0625 "/>
</g>
</g>
<clipPath id="clip-0">
<path clip-rule="nonzero" d="M 0 0 L 30 0 L 30 26.042969 L 0 26.042969 Z M 0 0 "/>
</clipPath>
<clipPath id="clip-1">
<path clip-rule="nonzero" d="M 27 0 L 65 0 L 65 26.042969 L 27 26.042969 Z M 27 0 "/>
</clipPath>
<clipPath id="clip-2">
<path clip-rule="nonzero" d="M 62 0 L 100 0 L 100 26.042969 L 62 26.042969 Z M 62 0 "/>
</clipPath>
<clipPath id="clip-3">
<path clip-rule="nonzero" d="M 98 0 L 136 0 L 136 26.042969 L 98 26.042969 Z M 98 0 "/>
</clipPath>
</defs>
<path fill="none" stroke-width="0.79701" stroke-linecap="butt" stroke-linejoin="miter" stroke="rgb(0%, 0%, 0%)" stroke-opacity="1" stroke-miterlimit="10" d="M -62.408844 0.00146875 L -42.920563 0.00146875 " transform="matrix(1, 0, 0, -1, 81.319, 13.021)"/>
<path fill="none" stroke-width="0.79701" stroke-linecap="butt" stroke-linejoin="miter" stroke="rgb(0%, 0%, 0%)" stroke-opacity="1" stroke-miterlimit="10" d="M -27.947906 0.00146875 L -7.486969 0.00146875 " transform="matrix(1, 0, 0, -1, 81.319, 13.021)"/>
<path fill="none" stroke-width="0.79701" stroke-linecap="butt" stroke-linejoin="miter" stroke="rgb(0%, 0%, 0%)" stroke-opacity="1" stroke-miterlimit="10" d="M 7.485687 0.00146875 L 27.946625 0.00146875 " transform="matrix(1, 0, 0, -1, 81.319, 13.021)"/>
<path fill="none" stroke-width="0.79701" stroke-linecap="butt" stroke-linejoin="miter" stroke="rgb(0%, 0%, 0%)" stroke-opacity="1" stroke-miterlimit="10" d="M 42.919281 0.00146875 L 53.14975 0.00146875 " transform="matrix(1, 0, 0, -1, 81.319, 13.021)"/>
<path fill-rule="nonzero" fill="rgb(100%, 100%, 100%)" fill-opacity="1" d="M 14.527344 2.390625 L 6.375 2.390625 C 4.175781 2.390625 2.390625 4.175781 2.390625 6.375 L 2.390625 19.664062 C 2.390625 21.867188 4.175781 23.652344 6.375 23.652344 L 14.527344 23.652344 C 16.730469 23.652344 18.511719 21.867188 18.511719 19.664062 L 18.511719 6.375 C 18.511719 4.175781 16.730469 2.390625 14.527344 2.390625 Z M 14.527344 2.390625 "/>
<g clip-path="url(#clip-0)">
<path fill="none" stroke-width="0.79701" stroke-linecap="butt" stroke-linejoin="miter" stroke="rgb(0%, 0%, 0%)" stroke-opacity="1" stroke-miterlimit="10" d="M -66.791656 10.630375 L -74.944 10.630375 C -77.143219 10.630375 -78.928375 8.845219 -78.928375 6.646 L -78.928375 -6.643063 C -78.928375 -8.846188 -77.143219 -10.631344 -74.944 -10.631344 L -66.791656 -10.631344 C -64.588531 -10.631344 -62.807281 -8.846188 -62.807281 -6.643063 L -62.807281 6.646 C -62.807281 8.845219 -64.588531 10.630375 -66.791656 10.630375 Z M -66.791656 10.630375 " transform="matrix(1, 0, 0, -1, 81.319, 13.021)"/>
</g>
<g fill="rgb(0%, 0%, 0%)" fill-opacity="1">
<use xlink:href="#glyph-0-0" x="5.712" y="14.197"/>
</g>
<g fill="rgb(0%, 0%, 0%)" fill-opacity="1">
<use xlink:href="#glyph-1-0" x="10.724" y="15.692"/>
</g>
<path fill-rule="nonzero" fill="rgb(100%, 100%, 100%)" fill-opacity="1" d="M 48.988281 2.390625 L 42.785156 2.390625 C 40.582031 2.390625 38.796875 4.175781 38.796875 6.375 L 38.796875 19.664062 C 38.796875 21.867188 40.582031 23.652344 42.785156 23.652344 L 48.988281 23.652344 C 51.1875 23.652344 52.972656 21.867188 52.972656 19.664062 L 52.972656 6.375 C 52.972656 4.175781 51.1875 2.390625 48.988281 2.390625 Z M 48.988281 2.390625 "/>
<g clip-path="url(#clip-1)">
<path fill="none" stroke-width="0.79701" stroke-linecap="butt" stroke-linejoin="miter" stroke="rgb(0%, 0%, 0%)" stroke-opacity="1" stroke-miterlimit="10" d="M -32.330719 10.630375 L -38.533844 10.630375 C -40.736969 10.630375 -42.522125 8.845219 -42.522125 6.646 L -42.522125 -6.643063 C -42.522125 -8.846188 -40.736969 -10.631344 -38.533844 -10.631344 L -32.330719 -10.631344 C -30.1315 -10.631344 -28.346344 -8.846188 -28.346344 -6.643063 L -28.346344 6.646 C -28.346344 8.845219 -30.1315 10.630375 -32.330719 10.630375 Z M -32.330719 10.630375 " transform="matrix(1, 0, 0, -1, 81.319, 13.021)"/>
</g>
<g fill="rgb(0%, 0%, 0%)" fill-opacity="1">
<use xlink:href="#glyph-0-1" x="43.135" y="16.48"/>
</g>
<path fill-rule="nonzero" fill="rgb(100%, 100%, 100%)" fill-opacity="1" d="M 84.421875 2.390625 L 78.21875 2.390625 C 76.015625 2.390625 74.230469 4.175781 74.230469 6.375 L 74.230469 19.664062 C 74.230469 21.867188 76.015625 23.652344 78.21875 23.652344 L 84.421875 23.652344 C 86.621094 23.652344 88.40625 21.867188 88.40625 19.664062 L 88.40625 6.375 C 88.40625 4.175781 86.621094 2.390625 84.421875 2.390625 Z M 84.421875 2.390625 "/>
<g clip-path="url(#clip-2)">
<path fill="none" stroke-width="0.79701" stroke-linecap="butt" stroke-linejoin="miter" stroke="rgb(0%, 0%, 0%)" stroke-opacity="1" stroke-miterlimit="10" d="M 3.102875 10.630375 L -3.10025 10.630375 C -5.303375 10.630375 -7.088531 8.845219 -7.088531 6.646 L -7.088531 -6.643063 C -7.088531 -8.846188 -5.303375 -10.631344 -3.10025 -10.631344 L 3.102875 -10.631344 C 5.302094 -10.631344 7.08725 -8.846188 7.08725 -6.643063 L 7.08725 6.646 C 7.08725 8.845219 5.302094 10.630375 3.102875 10.630375 Z M 3.102875 10.630375 " transform="matrix(1, 0, 0, -1, 81.319, 13.021)"/>
</g>
<g fill="rgb(0%, 0%, 0%)" fill-opacity="1">
<use xlink:href="#glyph-0-1" x="78.568" y="16.48"/>
</g>
<path fill-rule="nonzero" fill="rgb(100%, 100%, 100%)" fill-opacity="1" d="M 119.855469 2.390625 L 113.652344 2.390625 C 111.449219 2.390625 109.664062 4.175781 109.664062 6.375 L 109.664062 19.664062 C 109.664062 21.867188 111.449219 23.652344 113.652344 23.652344 L 119.855469 23.652344 C 122.054688 23.652344 123.839844 21.867188 123.839844 19.664062 L 123.839844 6.375 C 123.839844 4.175781 122.054688 2.390625 119.855469 2.390625 Z M 119.855469 2.390625 "/>
<g clip-path="url(#clip-3)">
<path fill="none" stroke-width="0.79701" stroke-linecap="butt" stroke-linejoin="miter" stroke="rgb(0%, 0%, 0%)" stroke-opacity="1" stroke-miterlimit="10" d="M 38.536469 10.630375 L 32.333344 10.630375 C 30.130219 10.630375 28.345062 8.845219 28.345062 6.646 L 28.345062 -6.643063 C 28.345062 -8.846188 30.130219 -10.631344 32.333344 -10.631344 L 38.536469 -10.631344 C 40.735687 -10.631344 42.520844 -8.846188 42.520844 -6.643063 L 42.520844 6.646 C 42.520844 8.845219 40.735687 10.630375 38.536469 10.630375 Z M 38.536469 10.630375 " transform="matrix(1, 0, 0, -1, 81.319, 13.021)"/>
</g>
<g fill="rgb(0%, 0%, 0%)" fill-opacity="1">
<use xlink:href="#glyph-0-1" x="114.001" y="16.48"/>
</g>
<g fill="rgb(0%, 0%, 0%)" fill-opacity="1">
<use xlink:href="#glyph-0-2" x="135.743" y="13.547"/>
</g>
<g fill="rgb(0%, 0%, 0%)" fill-opacity="1">
<use xlink:href="#glyph-0-2" x="140.174364" y="13.547"/>
</g>
<g fill="rgb(0%, 0%, 0%)" fill-opacity="1">
<use xlink:href="#glyph-0-2" x="144.595766" y="13.547"/>
</g>
<g fill="rgb(0%, 0%, 0%)" fill-opacity="1">
<use xlink:href="#glyph-0-3" x="23.651" y="9.338"/>
</g>
<g fill="rgb(0%, 0%, 0%)" fill-opacity="1">
<use xlink:href="#glyph-0-3" x="59.084" y="9.338"/>
</g>
<g fill="rgb(0%, 0%, 0%)" fill-opacity="1">
<use xlink:href="#glyph-0-3" x="94.517" y="9.338"/>
</g>
<g fill="rgb(0%, 0%, 0%)" fill-opacity="1">
<use xlink:href="#glyph-0-3" x="129.95" y="9.338"/>
</g>
</svg>
