<?xml version="1.0" encoding="UTF-8"?>
<svg xmlns="http://www.w3.org/2000/svg" xmlns:xlink="http://www.w3.org/1999/xlink" width="172.043pt" height="54.388pt" viewBox="0 0 172.043 54.388">
<defs>
<g>
<g id="glyph-0-0">
<path d="M 4.75 -2.359375 C 4.75 -3.921875 3.828125 -4.40625 3.09375 -4.40625 C 1.71875 -4.40625 0.40625 -2.984375 0.40625 -1.578125 C 0.40625 -0.640625 1 0.109375 2.03125 0.109375 C 2.65625 0.109375 3.375 -0.125 4.125 -0.734375 C 4.25 -0.203125 4.578125 0.109375 5.03125 0.109375 C 5.5625 0.109375 5.875 -0.4375 5.875 -0.59375 C 5.875 -0.671875 5.8125 -0.703125 5.75 -0.703125 C 5.6875 -0.703125 5.65625 -0.671875 5.625 -0.59375 C 5.4375 -0.109375 5.078125 -0.109375 5.0625 -0.109375 C 4.75 -0.109375 4.75 -0.890625 4.75 -1.125 C 4.75 -1.328125 4.75 -1.359375 4.859375 -1.46875 C 5.796875 -2.65625 6 -3.8125 6 -3.8125 C 6 -3.84375 5.984375 -3.921875 5.875 -3.921875 C 5.78125 -3.921875 5.78125 -3.890625 5.734375 -3.703125 C 5.546875 -3.078125 5.21875 -2.328125 4.75 -1.734375 Z M 4.09375 -0.984375 C 3.203125 -0.21875 2.4375 -0.109375 2.046875 -0.109375 C 1.453125 -0.109375 1.140625 -0.5625 1.140625 -1.203125 C 1.140625 -1.6875 1.40625 -2.765625 1.71875 -3.265625 C 2.1875 -4 2.734375 -4.1875 3.078125 -4.1875 C 4.0625 -4.1875 4.0625 -2.875 4.0625 -2.109375 C 4.0625 -1.734375 4.0625 -1.15625 4.09375 -0.984375 Z M 4.09375 -0.984375 "/>
</g>
<g id="glyph-0-1">
<path d="M 2.046875 -3.984375 L 2.984375 -3.984375 C 3.1875 -3.984375 3.296875 -3.984375 3.296875 -4.1875 C 3.296875 -4.296875 3.1875 -4.296875 3.015625 -4.296875 L 2.140625 -4.296875 C 2.5 -5.71875 2.546875 -5.90625 2.546875 -5.96875 C 2.546875 -6.140625 2.421875 -6.234375 2.25 -6.234375 C 2.21875 -6.234375 1.9375 -6.234375 1.859375 -5.875 L 1.46875 -4.296875 L 0.53125 -4.296875 C 0.328125 -4.296875 0.234375 -4.296875 0.234375 -4.109375 C 0.234375 -3.984375 0.3125 -3.984375 0.515625 -3.984375 L 1.390625 -3.984375 C 0.671875 -1.15625 0.625 -0.984375 0.625 -0.8125 C 0.625 -0.265625 1 0.109375 1.546875 0.109375 C 2.5625 0.109375 3.125 -1.34375 3.125 -1.421875 C 3.125 -1.53125 3.046875 -1.53125 3.015625 -1.53125 C 2.921875 -1.53125 2.90625 -1.5 2.859375 -1.390625 C 2.4375 -0.34375 1.90625 -0.109375 1.5625 -0.109375 C 1.359375 -0.109375 1.25 -0.234375 1.25 -0.5625 C 1.25 -0.8125 1.28125 -0.875 1.3125 -1.046875 Z M 2.046875 -3.984375 "/>
</g>
<g id="glyph-0-2">
<path d="M 2.859375 -6.8125 C 2.859375 -6.8125 2.859375 -6.921875 2.734375 -6.921875 C 2.5 -6.921875 1.78125 -6.84375 1.515625 -6.8125 C 1.4375 -6.8125 1.328125 -6.796875 1.328125 -6.625 C 1.328125 -6.5 1.421875 -6.5 1.5625 -6.5 C 2.046875 -6.5 2.0625 -6.4375 2.0625 -6.328125 L 2.03125 -6.125 L 0.59375 -0.390625 C 0.546875 -0.25 0.546875 -0.234375 0.546875 -0.171875 C 0.546875 0.0625 0.75 0.109375 0.84375 0.109375 C 0.96875 0.109375 1.109375 0.015625 1.171875 -0.09375 C 1.21875 -0.1875 1.671875 -2.03125 1.734375 -2.28125 C 2.078125 -2.25 2.890625 -2.09375 2.890625 -1.4375 C 2.890625 -1.359375 2.890625 -1.328125 2.859375 -1.21875 C 2.84375 -1.109375 2.828125 -0.984375 2.828125 -0.875 C 2.828125 -0.296875 3.21875 0.109375 3.734375 0.109375 C 4.03125 0.109375 4.3125 -0.046875 4.53125 -0.421875 C 4.78125 -0.859375 4.890625 -1.40625 4.890625 -1.421875 C 4.890625 -1.53125 4.796875 -1.53125 4.765625 -1.53125 C 4.671875 -1.53125 4.65625 -1.484375 4.625 -1.34375 C 4.421875 -0.625 4.203125 -0.109375 3.765625 -0.109375 C 3.5625 -0.109375 3.4375 -0.21875 3.4375 -0.578125 C 3.4375 -0.75 3.484375 -0.984375 3.515625 -1.140625 C 3.5625 -1.3125 3.5625 -1.34375 3.5625 -1.453125 C 3.5625 -2.09375 2.9375 -2.375 2.078125 -2.5 C 2.390625 -2.671875 2.71875 -2.984375 2.9375 -3.234375 C 3.421875 -3.765625 3.875 -4.1875 4.359375 -4.1875 C 4.421875 -4.1875 4.4375 -4.1875 4.453125 -4.171875 C 4.578125 -4.15625 4.578125 -4.15625 4.671875 -4.09375 C 4.6875 -4.09375 4.6875 -4.078125 4.703125 -4.0625 C 4.234375 -4.03125 4.140625 -3.640625 4.140625 -3.515625 C 4.140625 -3.359375 4.25 -3.171875 4.515625 -3.171875 C 4.78125 -3.171875 5.0625 -3.390625 5.0625 -3.78125 C 5.0625 -4.078125 4.828125 -4.40625 4.390625 -4.40625 C 4.109375 -4.40625 3.65625 -4.328125 2.9375 -3.53125 C 2.59375 -3.15625 2.203125 -2.75 1.828125 -2.609375 Z M 2.859375 -6.8125 "/>
</g>
<g id="glyph-0-3">
<path d="M 4.609375 -3.375 C 4.65625 -3.59375 4.75 -3.96875 4.75 -4.03125 C 4.75 -4.203125 4.609375 -4.296875 4.46875 -4.296875 C 4.34375 -4.296875 4.171875 -4.21875 4.09375 -4.015625 C 4.0625 -3.953125 3.59375 -2.046875 3.53125 -1.78125 C 3.453125 -1.484375 3.4375 -1.3125 3.4375 -1.125 C 3.4375 -1.015625 3.4375 -1 3.453125 -0.953125 C 3.21875 -0.421875 2.921875 -0.109375 2.53125 -0.109375 C 1.734375 -0.109375 1.734375 -0.84375 1.734375 -1.015625 C 1.734375 -1.328125 1.78125 -1.71875 2.25 -2.953125 C 2.359375 -3.25 2.421875 -3.390625 2.421875 -3.59375 C 2.421875 -4.03125 2.09375 -4.40625 1.609375 -4.40625 C 0.65625 -4.40625 0.296875 -2.953125 0.296875 -2.875 C 0.296875 -2.765625 0.390625 -2.765625 0.40625 -2.765625 C 0.515625 -2.765625 0.515625 -2.796875 0.5625 -2.953125 C 0.84375 -3.875 1.21875 -4.1875 1.578125 -4.1875 C 1.671875 -4.1875 1.828125 -4.171875 1.828125 -3.859375 C 1.828125 -3.609375 1.71875 -3.328125 1.640625 -3.15625 C 1.203125 -1.984375 1.09375 -1.53125 1.09375 -1.140625 C 1.09375 -0.234375 1.75 0.109375 2.5 0.109375 C 2.671875 0.109375 3.140625 0.109375 3.53125 -0.59375 C 3.796875 0.046875 4.484375 0.109375 4.78125 0.109375 C 5.53125 0.109375 5.96875 -0.515625 6.234375 -1.109375 C 6.5625 -1.890625 6.890625 -3.234375 6.890625 -3.703125 C 6.890625 -4.25 6.625 -4.40625 6.453125 -4.40625 C 6.203125 -4.40625 5.953125 -4.140625 5.953125 -3.921875 C 5.953125 -3.796875 6.015625 -3.734375 6.09375 -3.65625 C 6.203125 -3.546875 6.453125 -3.296875 6.453125 -2.8125 C 6.453125 -2.46875 6.171875 -1.5 5.90625 -0.984375 C 5.65625 -0.453125 5.296875 -0.109375 4.8125 -0.109375 C 4.34375 -0.109375 4.078125 -0.40625 4.078125 -0.984375 C 4.078125 -1.25 4.140625 -1.5625 4.1875 -1.703125 Z M 4.609375 -3.375 "/>
</g>
<g id="glyph-1-0">
<path d="M 3.296875 2.390625 C 3.296875 2.359375 3.296875 2.34375 3.125 2.171875 C 1.890625 0.921875 1.5625 -0.96875 1.5625 -2.5 C 1.5625 -4.234375 1.9375 -5.96875 3.171875 -7.203125 C 3.296875 -7.328125 3.296875 -7.34375 3.296875 -7.375 C 3.296875 -7.453125 3.265625 -7.484375 3.203125 -7.484375 C 3.09375 -7.484375 2.203125 -6.796875 1.609375 -5.53125 C 1.109375 -4.4375 0.984375 -3.328125 0.984375 -2.5 C 0.984375 -1.71875 1.09375 -0.515625 1.640625 0.625 C 2.25 1.84375 3.09375 2.5 3.203125 2.5 C 3.265625 2.5 3.296875 2.46875 3.296875 2.390625 Z M 3.296875 2.390625 "/>
</g>
<g id="glyph-1-1">
<path d="M 2.875 -2.5 C 2.875 -3.265625 2.765625 -4.46875 2.21875 -5.609375 C 1.625 -6.828125 0.765625 -7.484375 0.671875 -7.484375 C 0.609375 -7.484375 0.5625 -7.4375 0.5625 -7.375 C 0.5625 -7.34375 0.5625 -7.328125 0.75 -7.140625 C 1.734375 -6.15625 2.296875 -4.578125 2.296875 -2.5 C 2.296875 -0.78125 1.9375 0.96875 0.703125 2.21875 C 0.5625 2.34375 0.5625 2.359375 0.5625 2.390625 C 0.5625 2.453125 0.609375 2.5 0.671875 2.5 C 0.765625 2.5 1.671875 1.8125 2.25 0.546875 C 2.765625 -0.546875 2.875 -1.65625 2.875 -2.5 Z M 2.875 -2.5 "/>
</g>
<g id="glyph-1-2">
<path d="M 1.90625 -0.53125 C 1.90625 -0.8125 1.671875 -1.0625 1.390625 -1.0625 C 1.09375 -1.0625 0.859375 -0.8125 0.859375 -0.53125 C 0.859375 -0.234375 1.09375 0 1.390625 0 C 1.671875 0 1.90625 -0.234375 1.90625 -0.53125 Z M 1.90625 -0.53125 "/>
</g>
<g id="glyph-2-0">
<path d="M 1.71875 -2.75 L 2.421875 -2.75 C 2.5625 -2.75 2.640625 -2.75 2.640625 -2.90625 C 2.640625 -3 2.5625 -3 2.4375 -3 L 1.78125 -3 L 2.03125 -4.03125 C 2.046875 -4.0625 2.0625 -4.109375 2.0625 -4.125 C 2.0625 -4.265625 1.953125 -4.359375 1.8125 -4.359375 C 1.640625 -4.359375 1.546875 -4.234375 1.484375 -4.0625 C 1.4375 -3.875 1.53125 -4.21875 1.21875 -3 L 0.515625 -3 C 0.390625 -3 0.296875 -3 0.296875 -2.84375 C 0.296875 -2.75 0.375 -2.75 0.5 -2.75 L 1.15625 -2.75 L 0.75 -1.109375 C 0.703125 -0.9375 0.640625 -0.6875 0.640625 -0.59375 C 0.640625 -0.1875 1 0.0625 1.390625 0.0625 C 2.171875 0.0625 2.609375 -0.90625 2.609375 -1 C 2.609375 -1.09375 2.515625 -1.09375 2.5 -1.09375 C 2.40625 -1.09375 2.40625 -1.078125 2.34375 -0.953125 C 2.15625 -0.515625 1.796875 -0.125 1.421875 -0.125 C 1.265625 -0.125 1.171875 -0.21875 1.171875 -0.46875 C 1.171875 -0.53125 1.203125 -0.6875 1.21875 -0.75 Z M 1.71875 -2.75 "/>
</g>
<g id="glyph-3-0">
<path d="M 3.21875 -1.578125 L 5.359375 -1.578125 C 5.453125 -1.578125 5.609375 -1.578125 5.609375 -1.734375 C 5.609375 -1.921875 5.453125 -1.921875 5.359375 -1.921875 L 3.21875 -1.921875 L 3.21875 -4.0625 C 3.21875 -4.140625 3.21875 -4.3125 3.0625 -4.3125 C 2.890625 -4.3125 2.890625 -4.15625 2.890625 -4.0625 L 2.890625 -1.921875 L 0.75 -1.921875 C 0.65625 -1.921875 0.484375 -1.921875 0.484375 -1.75 C 0.484375 -1.578125 0.640625 -1.578125 0.75 -1.578125 L 2.890625 -1.578125 L 2.890625 0.5625 C 2.890625 0.65625 2.890625 0.828125 3.046875 0.828125 C 3.21875 0.828125 3.21875 0.65625 3.21875 0.5625 Z M 3.21875 -1.578125 "/>
</g>
<g id="glyph-3-1">
<path d="M 2.328125 -4.4375 C 2.328125 -4.625 2.328125 -4.625 2.125 -4.625 C 1.671875 -4.1875 1.046875 -4.1875 0.765625 -4.1875 L 0.765625 -3.9375 C 0.921875 -3.9375 1.390625 -3.9375 1.765625 -4.125 L 1.765625 -0.578125 C 1.765625 -0.34375 1.765625 -0.25 1.078125 -0.25 L 0.8125 -0.25 L 0.8125 0 C 0.9375 0 1.796875 -0.03125 2.046875 -0.03125 C 2.265625 -0.03125 3.140625 0 3.296875 0 L 3.296875 -0.25 L 3.03125 -0.25 C 2.328125 -0.25 2.328125 -0.34375 2.328125 -0.578125 Z M 2.328125 -4.4375 "/>
</g>
<g id="glyph-3-2">
<path d="M 3.515625 -1.265625 L 3.28125 -1.265625 C 3.265625 -1.109375 3.1875 -0.703125 3.09375 -0.640625 C 3.046875 -0.59375 2.515625 -0.59375 2.40625 -0.59375 L 1.125 -0.59375 C 1.859375 -1.234375 2.109375 -1.4375 2.515625 -1.765625 C 3.03125 -2.171875 3.515625 -2.609375 3.515625 -3.265625 C 3.515625 -4.109375 2.78125 -4.625 1.890625 -4.625 C 1.03125 -4.625 0.4375 -4.015625 0.4375 -3.375 C 0.4375 -3.03125 0.734375 -2.984375 0.8125 -2.984375 C 0.96875 -2.984375 1.171875 -3.109375 1.171875 -3.359375 C 1.171875 -3.484375 1.125 -3.734375 0.765625 -3.734375 C 0.984375 -4.21875 1.453125 -4.375 1.78125 -4.375 C 2.484375 -4.375 2.84375 -3.828125 2.84375 -3.265625 C 2.84375 -2.65625 2.40625 -2.1875 2.1875 -1.9375 L 0.515625 -0.265625 C 0.4375 -0.203125 0.4375 -0.1875 0.4375 0 L 3.3125 0 Z M 3.515625 -1.265625 "/>
</g>
</g>
<clipPath id="clip-0">
<path clip-rule="nonzero" d="M 53 19 L 104 19 L 104 54.386719 L 53 54.386719 Z M 53 19 "/>
</clipPath>
<clipPath id="clip-1">
<path clip-rule="nonzero" d="M 120 19 L 171 19 L 171 54.386719 L 120 54.386719 Z M 120 19 "/>
</clipPath>
</defs>
<path fill="none" stroke-width="0.79701" stroke-linecap="butt" stroke-linejoin="miter" stroke="rgb(0%, 0%, 0%)" stroke-opacity="1" stroke-miterlimit="10" d="M -22.6005 14.174469 L 13.7745 14.174469 " transform="matrix(1, 0, 0, -1, 81.913, 27.194)"/>
<path fill="none" stroke-width="0.79701" stroke-linecap="butt" stroke-linejoin="miter" stroke="rgb(0%, 0%, 0%)" stroke-opacity="1" stroke-miterlimit="10" d="M -24.803625 11.971344 C -24.803625 -1.290375 -30.885656 -14.173188 -17.627844 -14.173188 " transform="matrix(1, 0, 0, -1, 81.913, 27.194)"/>
<path fill="none" stroke-width="0.79701" stroke-linecap="butt" stroke-linejoin="miter" stroke="rgb(0%, 0%, 0%)" stroke-opacity="1" stroke-miterlimit="10" d="M -35.034094 14.174469 L -27.00675 14.174469 " transform="matrix(1, 0, 0, -1, 81.913, 27.194)"/>
<path fill="none" stroke-width="0.79701" stroke-linecap="butt" stroke-linejoin="miter" stroke="rgb(0%, 0%, 0%)" stroke-opacity="1" stroke-miterlimit="10" d="M 42.520594 11.971344 C 42.520594 -1.290375 36.438562 -14.173188 49.696375 -14.173188 " transform="matrix(1, 0, 0, -1, 81.913, 27.194)"/>
<path fill="none" stroke-width="0.79701" stroke-linecap="butt" stroke-linejoin="miter" stroke="rgb(0%, 0%, 0%)" stroke-opacity="1" stroke-miterlimit="10" d="M 28.747156 14.174469 L 40.317469 14.174469 " transform="matrix(1, 0, 0, -1, 81.913, 27.194)"/>
<path fill="none" stroke-width="0.79701" stroke-linecap="butt" stroke-linejoin="miter" stroke="rgb(0%, 0%, 0%)" stroke-opacity="1" stroke-miterlimit="10" d="M 44.723719 14.174469 L 70.86825 14.174469 " transform="matrix(1, 0, 0, -1, 81.913, 27.194)"/>
<path fill="none" stroke-width="0.79701" stroke-linecap="butt" stroke-linejoin="miter" stroke="rgb(0%, 0%, 0%)" stroke-opacity="1" stroke-miterlimit="10" d="M -54.7255 14.174469 L -50.00675 14.174469 " transform="matrix(1, 0, 0, -1, 81.913, 27.194)"/>
<path fill-rule="nonzero" fill="rgb(100%, 100%, 100%)" fill-opacity="1" stroke-width="0.79701" stroke-linecap="butt" stroke-linejoin="miter" stroke="rgb(0%, 0%, 0%)" stroke-opacity="1" stroke-miterlimit="10" d="M -59.108313 24.803375 L -75.538 24.803375 C -77.737219 24.803375 -79.522375 23.018219 -79.522375 20.819 L -79.522375 7.529937 C -79.522375 5.326812 -77.737219 3.541656 -75.538 3.541656 L -59.108313 3.541656 C -56.909094 3.541656 -55.123938 5.326812 -55.123938 7.529937 L -55.123938 20.819 C -55.123938 23.018219 -56.909094 24.803375 -59.108313 24.803375 Z M -59.108313 24.803375 " transform="matrix(1, 0, 0, -1, 81.913, 27.194)"/>
<g fill="rgb(0%, 0%, 0%)" fill-opacity="1">
<use xlink:href="#glyph-0-0" x="5.712" y="15.511"/>
</g>
<g fill="rgb(0%, 0%, 0%)" fill-opacity="1">
<use xlink:href="#glyph-1-0" x="12.124926" y="15.511"/>
</g>
<g fill="rgb(0%, 0%, 0%)" fill-opacity="1">
<use xlink:href="#glyph-0-1" x="15.999381" y="15.511"/>
</g>
<g fill="rgb(0%, 0%, 0%)" fill-opacity="1">
<use xlink:href="#glyph-1-1" x="19.596876" y="15.511"/>
</g>
<path fill-rule="nonzero" fill="rgb(100%, 100%, 100%)" fill-opacity="1" stroke-width="0.79701" stroke-linecap="butt" stroke-linejoin="miter" stroke="rgb(0%, 0%, 0%)" stroke-opacity="1" stroke-miterlimit="10" d="M -39.416906 24.803375 L -45.620031 24.803375 C -47.823156 24.803375 -49.608313 23.018219 -49.608313 20.819 L -49.608313 7.529937 C -49.608313 5.326812 -47.823156 3.541656 -45.620031 3.541656 L -39.416906 3.541656 C -37.217688 3.541656 -35.432531 5.326812 -35.432531 7.529937 L -35.432531 20.819 C -35.432531 23.018219 -37.217688 24.803375 -39.416906 24.803375 Z M -39.416906 24.803375 " transform="matrix(1, 0, 0, -1, 81.913, 27.194)"/>
<g fill="rgb(0%, 0%, 0%)" fill-opacity="1">
<use xlink:href="#glyph-0-2" x="36.643" y="16.48"/>
</g>
<path fill-rule="nonzero" fill="rgb(100%, 100%, 100%)" fill-opacity="1" stroke-width="0.79701" stroke-linecap="butt" stroke-linejoin="miter" stroke="rgb(0%, 0%, 0%)" stroke-opacity="1" stroke-miterlimit="10" d="M 24.360437 24.803375 L 18.157312 24.803375 C 15.958094 24.803375 14.172937 23.018219 14.172937 20.819 L 14.172937 7.529937 C 14.172937 5.326812 15.958094 3.541656 18.157312 3.541656 L 24.360437 3.541656 C 26.563562 3.541656 28.348719 5.326812 28.348719 7.529937 L 28.348719 20.819 C 28.348719 23.018219 26.563562 24.803375 24.360437 24.803375 Z M 24.360437 24.803375 " transform="matrix(1, 0, 0, -1, 81.913, 27.194)"/>
<g fill="rgb(0%, 0%, 0%)" fill-opacity="1">
<use xlink:href="#glyph-0-2" x="100.422" y="16.48"/>
</g>
<path fill-rule="nonzero" fill="rgb(0%, 0%, 0%)" fill-opacity="1" stroke-width="0.3985" stroke-linecap="butt" stroke-linejoin="miter" stroke="rgb(0%, 0%, 0%)" stroke-opacity="1" stroke-miterlimit="10" d="M -22.799719 14.174469 C -22.799719 15.279937 -23.698156 16.178375 -24.803625 16.178375 C -25.909094 16.178375 -26.807531 15.279937 -26.807531 14.174469 C -26.807531 13.065094 -25.909094 12.170562 -24.803625 12.170562 C -23.698156 12.170562 -22.799719 13.065094 -22.799719 14.174469 Z M -22.799719 14.174469 " transform="matrix(1, 0, 0, -1, 81.913, 27.194)"/>
<path fill-rule="nonzero" fill="rgb(100%, 100%, 100%)" fill-opacity="1" d="M 88.070312 30.738281 L 68.671875 30.738281 C 66.46875 30.738281 64.683594 32.523438 64.683594 34.722656 L 64.683594 48.011719 C 64.683594 50.214844 66.46875 51.996094 68.671875 51.996094 L 88.070312 51.996094 C 90.269531 51.996094 92.054688 50.214844 92.054688 48.011719 L 92.054688 34.722656 C 92.054688 32.523438 90.269531 30.738281 88.070312 30.738281 Z M 88.070312 30.738281 "/>
<g clip-path="url(#clip-0)">
<path fill="none" stroke-width="0.79701" stroke-linecap="butt" stroke-linejoin="miter" stroke="rgb(0%, 0%, 0%)" stroke-opacity="1" stroke-miterlimit="10" d="M 6.157312 -3.544281 L -13.241125 -3.544281 C -15.44425 -3.544281 -17.229406 -5.329438 -17.229406 -7.528656 L -17.229406 -20.817719 C -17.229406 -23.020844 -15.44425 -24.802094 -13.241125 -24.802094 L 6.157312 -24.802094 C 8.356531 -24.802094 10.141687 -23.020844 10.141687 -20.817719 L 10.141687 -7.528656 C 10.141687 -5.329438 8.356531 -3.544281 6.157312 -3.544281 Z M 6.157312 -3.544281 " transform="matrix(1, 0, 0, -1, 81.913, 27.194)"/>
</g>
<g fill="rgb(0%, 0%, 0%)" fill-opacity="1">
<use xlink:href="#glyph-0-3" x="68.006" y="42.35"/>
</g>
<g fill="rgb(0%, 0%, 0%)" fill-opacity="1">
<use xlink:href="#glyph-2-0" x="75.138" y="43.844"/>
</g>
<g fill="rgb(0%, 0%, 0%)" fill-opacity="1">
<use xlink:href="#glyph-3-0" x="78.147892" y="43.844"/>
<use xlink:href="#glyph-3-1" x="84.263915" y="43.844"/>
</g>
<path fill-rule="nonzero" fill="rgb(0%, 0%, 0%)" fill-opacity="1" stroke-width="0.3985" stroke-linecap="butt" stroke-linejoin="miter" stroke="rgb(0%, 0%, 0%)" stroke-opacity="1" stroke-miterlimit="10" d="M 44.5245 14.174469 C 44.5245 15.279937 43.626062 16.178375 42.520594 16.178375 C 41.411219 16.178375 40.516687 15.279937 40.516687 14.174469 C 40.516687 13.065094 41.411219 12.170562 42.520594 12.170562 C 43.626062 12.170562 44.5245 13.065094 44.5245 14.174469 Z M 44.5245 14.174469 " transform="matrix(1, 0, 0, -1, 81.913, 27.194)"/>
<path fill-rule="nonzero" fill="rgb(100%, 100%, 100%)" fill-opacity="1" d="M 155.390625 30.738281 L 135.992188 30.738281 C 133.792969 30.738281 132.007812 32.523438 132.007812 34.722656 L 132.007812 48.011719 C 132.007812 50.214844 133.792969 51.996094 135.992188 51.996094 L 155.390625 51.996094 C 157.59375 51.996094 159.378906 50.214844 159.378906 48.011719 L 159.378906 34.722656 C 159.378906 32.523438 157.59375 30.738281 155.390625 30.738281 Z M 155.390625 30.738281 "/>
<g clip-path="url(#clip-1)">
<path fill="none" stroke-width="0.79701" stroke-linecap="butt" stroke-linejoin="miter" stroke="rgb(0%, 0%, 0%)" stroke-opacity="1" stroke-miterlimit="10" d="M 73.477625 -3.544281 L 54.079187 -3.544281 C 51.879969 -3.544281 50.094812 -5.329438 50.094812 -7.528656 L 50.094812 -20.817719 C 50.094812 -23.020844 51.879969 -24.802094 54.079187 -24.802094 L 73.477625 -24.802094 C 75.68075 -24.802094 77.465906 -23.020844 77.465906 -20.817719 L 77.465906 -7.528656 C 77.465906 -5.329438 75.68075 -3.544281 73.477625 -3.544281 Z M 73.477625 -3.544281 " transform="matrix(1, 0, 0, -1, 81.913, 27.194)"/>
</g>
<g fill="rgb(0%, 0%, 0%)" fill-opacity="1">
<use xlink:href="#glyph-0-3" x="135.328" y="42.35"/>
</g>
<g fill="rgb(0%, 0%, 0%)" fill-opacity="1">
<use xlink:href="#glyph-2-0" x="142.461" y="43.844"/>
</g>
<g fill="rgb(0%, 0%, 0%)" fill-opacity="1">
<use xlink:href="#glyph-3-0" x="145.470892" y="43.844"/>
<use xlink:href="#glyph-3-2" x="151.586915" y="43.844"/>
</g>
<g fill="rgb(0%, 0%, 0%)" fill-opacity="1">
<use xlink:href="#glyph-1-2" x="156.767" y="13.547"/>
</g>
<g fill="rgb(0%, 0%, 0%)" fill-opacity="1">
<use xlink:href="#glyph-1-2" x="161.198364" y="13.547"/>
</g>
<g fill="rgb(0%, 0%, 0%)" fill-opacity="1">
<use xlink:href="#glyph-1-2" x="165.619766" y="13.547"/>
</g>
</svg>
