<?xml version="1.0" encoding="UTF-8"?>
<svg xmlns="http://www.w3.org/2000/svg" xmlns:xlink="http://www.w3.org/1999/xlink" width="201.922pt" height="50.403pt" viewBox="0 0 201.922 50.403">
<defs>
<g>
<g id="glyph-0-0">
<path d="M 2.859375 -6.8125 C 2.859375 -6.8125 2.859375 -6.921875 2.734375 -6.921875 C 2.5 -6.921875 1.78125 -6.84375 1.515625 -6.8125 C 1.4375 -6.8125 1.328125 -6.796875 1.328125 -6.625 C 1.328125 -6.5 1.421875 -6.5 1.5625 -6.5 C 2.046875 -6.5 2.0625 -6.4375 2.0625 -6.328125 L 2.03125 -6.125 L 0.59375 -0.390625 C 0.546875 -0.25 0.546875 -0.234375 0.546875 -0.171875 C 0.546875 0.0625 0.75 0.109375 0.84375 0.109375 C 0.96875 0.109375 1.109375 0.015625 1.171875 -0.09375 C 1.21875 -0.1875 1.671875 -2.03125 1.734375 -2.28125 C 2.078125 -2.25 2.890625 -2.09375 2.890625 -1.4375 C 2.890625 -1.359375 2.890625 -1.328125 2.859375 -1.21875 C 2.84375 -1.109375 2.828125 -0.984375 2.828125 -0.875 C 2.828125 -0.296875 3.21875 0.109375 3.734375 0.109375 C 4.03125 0.109375 4.3125 -0.046875 4.53125 -0.421875 C 4.78125 -0.859375 4.890625 -1.40625 4.890625 -1.421875 C 4.890625 -1.53125 4.796875 -1.53125 4.765625 -1.53125 C 4.671875 -1.53125 4.65625 -1.484375 4.625 -1.34375 C 4.421875 -0.625 4.203125 -0.109375 3.765625 -0.109375 C 3.5625 -0.109375 3.4375 -0.21875 3.4375 -0.578125 C 3.4375 -0.75 3.484375 -0.984375 3.515625 -1.140625 C 3.5625 -1.3125 3.5625 -1.34375 3.5625 -1.453125 C 3.5625 -2.09375 2.9375 -2.375 2.078125 -2.5 C 2.390625 -2.671875 2.71875 -2.984375 2.9375 -3.234375 C 3.421875 -3.765625 3.875 -4.1875 4.359375 -4.1875 C 4.421875 -4.1875 4.4375 -4.1875 4.453125 -4.171875 C 4.578125 -4.15625 4.578125 -4.15625 4.671875 -4.09375 C 4.6875 -4.09375 4.6875 -4.078125 4.703125 -4.0625 C 4.234375 -4.03125 4.140625 -3.640625 4.140625 -3.515625 C 4.140625 -3.359375 4.25 -3.171875 4.515625 -3.171875 C 4.78125 -3.171875 5.0625 -3.390625 5.0625 -3.78125 C 5.0625 -4.078125 4.828125 -4.40625 4.390625 -4.40625 C 4.109375 -4.40625 3.65625 -4.328125 2.9375 -3.53125 C 2.59375 -3.15625 2.203125 -2.75 1.828125 -2.609375 Z M 2.859375 -6.8125 "/>
</g>
<g id="glyph-0-1">
<path d="M 4.671875 -2.71875 C 4.671875 -3.765625 3.984375 -4.40625 3.078125 -4.40625 C 1.75 -4.40625 0.40625 -2.984375 0.40625 -1.578125 C 0.40625 -0.59375 1.078125 0.109375 2 0.109375 C 3.328125 0.109375 4.671875 -1.265625 4.671875 -2.71875 Z M 2.015625 -0.109375 C 1.578125 -0.109375 1.140625 -0.421875 1.140625 -1.203125 C 1.140625 -1.6875 1.40625 -2.765625 1.71875 -3.265625 C 2.21875 -4.03125 2.796875 -4.1875 3.078125 -4.1875 C 3.65625 -4.1875 3.953125 -3.703125 3.953125 -3.109375 C 3.953125 -2.71875 3.75 -1.671875 3.375 -1.03125 C 3.015625 -0.453125 2.46875 -0.109375 2.015625 -0.109375 Z M 2.015625 -0.109375 "/>
</g>
<g id="glyph-0-2">
<path d="M 2.828125 -6.234375 C 2.828125 -6.4375 2.6875 -6.59375 2.46875 -6.59375 C 2.1875 -6.59375 1.921875 -6.328125 1.921875 -6.0625 C 1.921875 -5.875 2.0625 -5.703125 2.296875 -5.703125 C 2.53125 -5.703125 2.828125 -5.9375 2.828125 -6.234375 Z M 2.078125 -2.484375 C 2.1875 -2.765625 2.1875 -2.796875 2.296875 -3.0625 C 2.375 -3.265625 2.421875 -3.40625 2.421875 -3.59375 C 2.421875 -4.03125 2.109375 -4.40625 1.609375 -4.40625 C 0.671875 -4.40625 0.296875 -2.953125 0.296875 -2.875 C 0.296875 -2.765625 0.390625 -2.765625 0.40625 -2.765625 C 0.515625 -2.765625 0.515625 -2.796875 0.5625 -2.953125 C 0.84375 -3.890625 1.234375 -4.1875 1.578125 -4.1875 C 1.65625 -4.1875 1.828125 -4.1875 1.828125 -3.875 C 1.828125 -3.65625 1.75 -3.453125 1.71875 -3.34375 C 1.640625 -3.09375 1.1875 -1.9375 1.03125 -1.5 C 0.921875 -1.25 0.796875 -0.921875 0.796875 -0.703125 C 0.796875 -0.234375 1.140625 0.109375 1.609375 0.109375 C 2.546875 0.109375 2.921875 -1.328125 2.921875 -1.421875 C 2.921875 -1.53125 2.828125 -1.53125 2.796875 -1.53125 C 2.703125 -1.53125 2.703125 -1.5 2.65625 -1.34375 C 2.46875 -0.71875 2.140625 -0.109375 1.640625 -0.109375 C 1.46875 -0.109375 1.390625 -0.203125 1.390625 -0.4375 C 1.390625 -0.6875 1.453125 -0.828125 1.6875 -1.4375 Z M 2.078125 -2.484375 "/>
</g>
<g id="glyph-1-0">
<path d="M 1.90625 -0.53125 C 1.90625 -0.8125 1.671875 -1.0625 1.390625 -1.0625 C 1.09375 -1.0625 0.859375 -0.8125 0.859375 -0.53125 C 0.859375 -0.234375 1.09375 0 1.390625 0 C 1.671875 0 1.90625 -0.234375 1.90625 -0.53125 Z M 1.90625 -0.53125 "/>
</g>
</g>
<clipPath id="clip-0">
<path clip-rule="nonzero" d="M 45 1 L 83 1 L 83 50.402344 L 45 50.402344 Z M 45 1 "/>
</clipPath>
<clipPath id="clip-1">
<path clip-rule="nonzero" d="M 88 1 L 125 1 L 125 50.402344 L 88 50.402344 Z M 88 1 "/>
</clipPath>
<clipPath id="clip-2">
<path clip-rule="nonzero" d="M 130 1 L 168 1 L 168 50.402344 L 130 50.402344 Z M 130 1 "/>
</clipPath>
<clipPath id="clip-3">
<path clip-rule="nonzero" d="M 71 28 L 86 28 L 86 50.402344 L 71 50.402344 Z M 71 28 "/>
</clipPath>
<clipPath id="clip-4">
<path clip-rule="nonzero" d="M 59 17 L 97 17 L 97 50.402344 L 59 50.402344 Z M 59 17 "/>
</clipPath>
<clipPath id="clip-5">
<path clip-rule="nonzero" d="M 113 28 L 128 28 L 128 50.402344 L 113 50.402344 Z M 113 28 "/>
</clipPath>
<clipPath id="clip-6">
<path clip-rule="nonzero" d="M 102 17 L 140 17 L 140 50.402344 L 102 50.402344 Z M 102 17 "/>
</clipPath>
<clipPath id="clip-7">
<path clip-rule="nonzero" d="M 156 28 L 171 28 L 171 50.402344 L 156 50.402344 Z M 156 28 "/>
</clipPath>
<clipPath id="clip-8">
<path clip-rule="nonzero" d="M 145 17 L 182 17 L 182 50.402344 L 145 50.402344 Z M 145 17 "/>
</clipPath>
</defs>
<path fill="none" stroke-width="0.79701" stroke-linecap="butt" stroke-linejoin="miter" stroke="rgb(0%, 0%, 0%)" stroke-opacity="1" stroke-miterlimit="10" d="M -13.774594 28.347656 L -2.204281 28.347656 " transform="matrix(1, 0, 0, -1, 57.091, 39.375)"/>
<path fill="none" stroke-width="0.79701" stroke-linecap="butt" stroke-linejoin="miter" stroke="rgb(0%, 0%, 0%)" stroke-opacity="1" stroke-miterlimit="10" d="M 2.201969 28.347656 L 13.776187 28.347656 " transform="matrix(1, 0, 0, -1, 57.091, 39.375)"/>
<g clip-path="url(#clip-0)">
<path fill="none" stroke-width="0.79701" stroke-linecap="butt" stroke-linejoin="miter" stroke="rgb(0%, 0%, 0%)" stroke-opacity="1" stroke-miterlimit="10" d="M -0.00115625 26.144531 C -0.00115625 11.714844 -0.6535 0 13.776187 0 " transform="matrix(1, 0, 0, -1, 57.091, 39.375)"/>
</g>
<path fill="none" stroke-width="0.79701" stroke-linecap="butt" stroke-linejoin="miter" stroke="rgb(0%, 0%, 0%)" stroke-opacity="1" stroke-miterlimit="10" d="M 44.725406 28.347656 L 56.295719 28.347656 " transform="matrix(1, 0, 0, -1, 57.091, 39.375)"/>
<g clip-path="url(#clip-1)">
<path fill="none" stroke-width="0.79701" stroke-linecap="butt" stroke-linejoin="miter" stroke="rgb(0%, 0%, 0%)" stroke-opacity="1" stroke-miterlimit="10" d="M 42.518375 26.144531 C 42.518375 11.714844 41.866031 0 56.295719 0 " transform="matrix(1, 0, 0, -1, 57.091, 39.375)"/>
</g>
<path fill="none" stroke-width="0.79701" stroke-linecap="butt" stroke-linejoin="miter" stroke="rgb(0%, 0%, 0%)" stroke-opacity="1" stroke-miterlimit="10" d="M 28.744937 28.347656 L 40.31525 28.347656 " transform="matrix(1, 0, 0, -1, 57.091, 39.375)"/>
<path fill="none" stroke-width="0.79701" stroke-linecap="butt" stroke-linejoin="miter" stroke="rgb(0%, 0%, 0%)" stroke-opacity="1" stroke-miterlimit="10" d="M 87.244937 28.347656 L 98.81525 28.347656 " transform="matrix(1, 0, 0, -1, 57.091, 39.375)"/>
<g clip-path="url(#clip-2)">
<path fill="none" stroke-width="0.79701" stroke-linecap="butt" stroke-linejoin="miter" stroke="rgb(0%, 0%, 0%)" stroke-opacity="1" stroke-miterlimit="10" d="M 85.041812 26.144531 C 85.041812 11.714844 84.385562 0 98.81525 0 " transform="matrix(1, 0, 0, -1, 57.091, 39.375)"/>
</g>
<path fill="none" stroke-width="0.79701" stroke-linecap="butt" stroke-linejoin="miter" stroke="rgb(0%, 0%, 0%)" stroke-opacity="1" stroke-miterlimit="10" d="M 71.264469 28.347656 L 82.834781 28.347656 " transform="matrix(1, 0, 0, -1, 57.091, 39.375)"/>
<path fill="none" stroke-width="0.79701" stroke-linecap="butt" stroke-linejoin="miter" stroke="rgb(0%, 0%, 0%)" stroke-opacity="1" stroke-miterlimit="10" d="M 113.784 28.347656 L 127.561344 28.347656 " transform="matrix(1, 0, 0, -1, 57.091, 39.375)"/>
<path fill="none" stroke-width="0.79701" stroke-linecap="butt" stroke-linejoin="miter" stroke="rgb(0%, 0%, 0%)" stroke-opacity="1" stroke-miterlimit="10" d="M 28.744937 0 L 41.811344 0 " transform="matrix(1, 0, 0, -1, 57.091, 39.375)"/>
<path fill="none" stroke-width="0.6376" stroke-linecap="round" stroke-linejoin="round" stroke="rgb(0%, 0%, 0%)" stroke-opacity="1" stroke-miterlimit="10" d="M -1.552278 2.070312 C -1.423371 1.296875 -0.00149625 0.128906 0.389129 0 C -0.00149625 -0.128906 -1.423371 -1.296875 -1.552278 -2.070312 " transform="matrix(1, 0, 0, -1, 98.90384, 39.375)"/>
<path fill="none" stroke-width="0.79701" stroke-linecap="butt" stroke-linejoin="miter" stroke="rgb(0%, 0%, 0%)" stroke-opacity="1" stroke-miterlimit="10" d="M 71.264469 0 L 84.334781 0 " transform="matrix(1, 0, 0, -1, 57.091, 39.375)"/>
<path fill="none" stroke-width="0.6376" stroke-linecap="round" stroke-linejoin="round" stroke="rgb(0%, 0%, 0%)" stroke-opacity="1" stroke-miterlimit="10" d="M -1.552956 2.070312 C -1.42405 1.296875 0.00173125 0.128906 0.38845 0 C 0.00173125 -0.128906 -1.42405 -1.296875 -1.552956 -2.070312 " transform="matrix(1, 0, 0, -1, 141.42405, 39.375)"/>
<path fill="none" stroke-width="0.79701" stroke-linecap="butt" stroke-linejoin="miter" stroke="rgb(0%, 0%, 0%)" stroke-opacity="1" stroke-miterlimit="10" d="M 113.784 0 L 126.854312 0 " transform="matrix(1, 0, 0, -1, 57.091, 39.375)"/>
<path fill="none" stroke-width="0.6376" stroke-linecap="round" stroke-linejoin="round" stroke="rgb(0%, 0%, 0%)" stroke-opacity="1" stroke-miterlimit="10" d="M -1.553645 2.070312 C -1.424739 1.296875 0.0010425 0.128906 0.387761 0 C 0.0010425 -0.128906 -1.424739 -1.296875 -1.553645 -2.070312 " transform="matrix(1, 0, 0, -1, 183.94427, 39.375)"/>
<path fill="none" stroke-width="0.79701" stroke-linecap="butt" stroke-linejoin="miter" stroke="rgb(0%, 0%, 0%)" stroke-opacity="1" stroke-miterlimit="10" d="M -42.12225 28.347656 L -28.743344 28.347656 " transform="matrix(1, 0, 0, -1, 57.091, 39.375)"/>
<path fill-rule="nonzero" fill="rgb(100%, 100%, 100%)" fill-opacity="1" stroke-width="0.79701" stroke-linecap="butt" stroke-linejoin="miter" stroke="rgb(0%, 0%, 0%)" stroke-opacity="1" stroke-miterlimit="10" d="M -18.157406 38.976562 L -24.360531 38.976562 C -26.563656 38.976562 -28.344906 37.191406 -28.344906 34.992188 L -28.344906 21.703125 C -28.344906 19.5 -26.563656 17.714844 -24.360531 17.714844 L -18.157406 17.714844 C -15.958188 17.714844 -14.173031 19.5 -14.173031 21.703125 L -14.173031 34.992188 C -14.173031 37.191406 -15.958188 38.976562 -18.157406 38.976562 Z M -18.157406 38.976562 " transform="matrix(1, 0, 0, -1, 57.091, 39.375)"/>
<g fill="rgb(0%, 0%, 0%)" fill-opacity="1">
<use xlink:href="#glyph-0-0" x="33.081" y="14.487"/>
</g>
<path fill-rule="nonzero" fill="rgb(100%, 100%, 100%)" fill-opacity="1" stroke-width="0.79701" stroke-linecap="butt" stroke-linejoin="miter" stroke="rgb(0%, 0%, 0%)" stroke-opacity="1" stroke-miterlimit="10" d="M 24.362125 38.976562 L 18.159 38.976562 C 15.955875 38.976562 14.174625 37.191406 14.174625 34.992188 L 14.174625 21.703125 C 14.174625 19.5 15.955875 17.714844 18.159 17.714844 L 24.362125 17.714844 C 26.561344 17.714844 28.3465 19.5 28.3465 21.703125 L 28.3465 34.992188 C 28.3465 37.191406 26.561344 38.976562 24.362125 38.976562 Z M 24.362125 38.976562 " transform="matrix(1, 0, 0, -1, 57.091, 39.375)"/>
<g fill="rgb(0%, 0%, 0%)" fill-opacity="1">
<use xlink:href="#glyph-0-0" x="75.601" y="14.487"/>
</g>
<path fill-rule="nonzero" fill="rgb(0%, 0%, 0%)" fill-opacity="1" stroke-width="0.3985" stroke-linecap="butt" stroke-linejoin="miter" stroke="rgb(0%, 0%, 0%)" stroke-opacity="1" stroke-miterlimit="10" d="M 2.00275 28.347656 C 2.00275 29.453125 1.108219 30.351562 -0.00115625 30.351562 C -1.106625 30.351562 -2.005063 29.453125 -2.005063 28.347656 C -2.005063 27.238281 -1.106625 26.34375 -0.00115625 26.34375 C 1.108219 26.34375 2.00275 27.238281 2.00275 28.347656 Z M 2.00275 28.347656 " transform="matrix(1, 0, 0, -1, 57.091, 39.375)"/>
<g clip-path="url(#clip-3)">
<path fill-rule="nonzero" fill="rgb(100%, 100%, 100%)" fill-opacity="1" d="M 81.453125 28.746094 L 75.25 28.746094 C 73.046875 28.746094 71.265625 30.527344 71.265625 32.730469 L 71.265625 46.019531 C 71.265625 48.222656 73.046875 50.003906 75.25 50.003906 L 81.453125 50.003906 C 83.652344 50.003906 85.4375 48.222656 85.4375 46.019531 L 85.4375 32.730469 C 85.4375 30.527344 83.652344 28.746094 81.453125 28.746094 Z M 81.453125 28.746094 "/>
</g>
<g clip-path="url(#clip-4)">
<path fill="none" stroke-width="0.79701" stroke-linecap="butt" stroke-linejoin="miter" stroke="rgb(0%, 0%, 0%)" stroke-opacity="1" stroke-miterlimit="10" d="M 24.362125 10.628906 L 18.159 10.628906 C 15.955875 10.628906 14.174625 8.847656 14.174625 6.644531 L 14.174625 -6.644531 C 14.174625 -8.847656 15.955875 -10.628906 18.159 -10.628906 L 24.362125 -10.628906 C 26.561344 -10.628906 28.3465 -8.847656 28.3465 -6.644531 L 28.3465 6.644531 C 28.3465 8.847656 26.561344 10.628906 24.362125 10.628906 Z M 24.362125 10.628906 " transform="matrix(1, 0, 0, -1, 57.091, 39.375)"/>
</g>
<g fill="rgb(0%, 0%, 0%)" fill-opacity="1">
<use xlink:href="#glyph-0-1" x="75.937" y="41.519"/>
</g>
<path fill-rule="nonzero" fill="rgb(100%, 100%, 100%)" fill-opacity="1" stroke-width="0.79701" stroke-linecap="butt" stroke-linejoin="miter" stroke="rgb(0%, 0%, 0%)" stroke-opacity="1" stroke-miterlimit="10" d="M 66.881656 38.976562 L 60.678531 38.976562 C 58.479312 38.976562 56.694156 37.191406 56.694156 34.992188 L 56.694156 21.703125 C 56.694156 19.5 58.479312 17.714844 60.678531 17.714844 L 66.881656 17.714844 C 69.080875 17.714844 70.866031 19.5 70.866031 21.703125 L 70.866031 34.992188 C 70.866031 37.191406 69.080875 38.976562 66.881656 38.976562 Z M 66.881656 38.976562 " transform="matrix(1, 0, 0, -1, 57.091, 39.375)"/>
<g fill="rgb(0%, 0%, 0%)" fill-opacity="1">
<use xlink:href="#glyph-0-0" x="118.121" y="14.487"/>
</g>
<path fill-rule="nonzero" fill="rgb(0%, 0%, 0%)" fill-opacity="1" stroke-width="0.3985" stroke-linecap="butt" stroke-linejoin="miter" stroke="rgb(0%, 0%, 0%)" stroke-opacity="1" stroke-miterlimit="10" d="M 44.526187 28.347656 C 44.526187 29.453125 43.62775 30.351562 42.518375 30.351562 C 41.412906 30.351562 40.514469 29.453125 40.514469 28.347656 C 40.514469 27.238281 41.412906 26.34375 42.518375 26.34375 C 43.62775 26.34375 44.526187 27.238281 44.526187 28.347656 Z M 44.526187 28.347656 " transform="matrix(1, 0, 0, -1, 57.091, 39.375)"/>
<g clip-path="url(#clip-5)">
<path fill-rule="nonzero" fill="rgb(100%, 100%, 100%)" fill-opacity="1" d="M 123.972656 28.746094 L 117.769531 28.746094 C 115.570312 28.746094 113.785156 30.527344 113.785156 32.730469 L 113.785156 46.019531 C 113.785156 48.222656 115.570312 50.003906 117.769531 50.003906 L 123.972656 50.003906 C 126.171875 50.003906 127.957031 48.222656 127.957031 46.019531 L 127.957031 32.730469 C 127.957031 30.527344 126.171875 28.746094 123.972656 28.746094 Z M 123.972656 28.746094 "/>
</g>
<g clip-path="url(#clip-6)">
<path fill="none" stroke-width="0.79701" stroke-linecap="butt" stroke-linejoin="miter" stroke="rgb(0%, 0%, 0%)" stroke-opacity="1" stroke-miterlimit="10" d="M 66.881656 10.628906 L 60.678531 10.628906 C 58.479312 10.628906 56.694156 8.847656 56.694156 6.644531 L 56.694156 -6.644531 C 56.694156 -8.847656 58.479312 -10.628906 60.678531 -10.628906 L 66.881656 -10.628906 C 69.080875 -10.628906 70.866031 -8.847656 70.866031 -6.644531 L 70.866031 6.644531 C 70.866031 8.847656 69.080875 10.628906 66.881656 10.628906 Z M 66.881656 10.628906 " transform="matrix(1, 0, 0, -1, 57.091, 39.375)"/>
</g>
<g fill="rgb(0%, 0%, 0%)" fill-opacity="1">
<use xlink:href="#glyph-0-1" x="118.456" y="41.519"/>
</g>
<path fill-rule="nonzero" fill="rgb(100%, 100%, 100%)" fill-opacity="1" stroke-width="0.79701" stroke-linecap="butt" stroke-linejoin="miter" stroke="rgb(0%, 0%, 0%)" stroke-opacity="1" stroke-miterlimit="10" d="M 109.401187 38.976562 L 103.198062 38.976562 C 100.998844 38.976562 99.213687 37.191406 99.213687 34.992188 L 99.213687 21.703125 C 99.213687 19.5 100.998844 17.714844 103.198062 17.714844 L 109.401187 17.714844 C 111.604312 17.714844 113.385562 19.5 113.385562 21.703125 L 113.385562 34.992188 C 113.385562 37.191406 111.604312 38.976562 109.401187 38.976562 Z M 109.401187 38.976562 " transform="matrix(1, 0, 0, -1, 57.091, 39.375)"/>
<g fill="rgb(0%, 0%, 0%)" fill-opacity="1">
<use xlink:href="#glyph-0-0" x="160.64" y="14.487"/>
</g>
<path fill-rule="nonzero" fill="rgb(0%, 0%, 0%)" fill-opacity="1" stroke-width="0.3985" stroke-linecap="butt" stroke-linejoin="miter" stroke="rgb(0%, 0%, 0%)" stroke-opacity="1" stroke-miterlimit="10" d="M 87.045719 28.347656 C 87.045719 29.453125 86.147281 30.351562 85.041812 30.351562 C 83.932437 30.351562 83.034 29.453125 83.034 28.347656 C 83.034 27.238281 83.932437 26.34375 85.041812 26.34375 C 86.147281 26.34375 87.045719 27.238281 87.045719 28.347656 Z M 87.045719 28.347656 " transform="matrix(1, 0, 0, -1, 57.091, 39.375)"/>
<g clip-path="url(#clip-7)">
<path fill-rule="nonzero" fill="rgb(100%, 100%, 100%)" fill-opacity="1" d="M 166.492188 28.746094 L 160.289062 28.746094 C 158.089844 28.746094 156.304688 30.527344 156.304688 32.730469 L 156.304688 46.019531 C 156.304688 48.222656 158.089844 50.003906 160.289062 50.003906 L 166.492188 50.003906 C 168.695312 50.003906 170.476562 48.222656 170.476562 46.019531 L 170.476562 32.730469 C 170.476562 30.527344 168.695312 28.746094 166.492188 28.746094 Z M 166.492188 28.746094 "/>
</g>
<g clip-path="url(#clip-8)">
<path fill="none" stroke-width="0.79701" stroke-linecap="butt" stroke-linejoin="miter" stroke="rgb(0%, 0%, 0%)" stroke-opacity="1" stroke-miterlimit="10" d="M 109.401187 10.628906 L 103.198062 10.628906 C 100.998844 10.628906 99.213687 8.847656 99.213687 6.644531 L 99.213687 -6.644531 C 99.213687 -8.847656 100.998844 -10.628906 103.198062 -10.628906 L 109.401187 -10.628906 C 111.604312 -10.628906 113.385562 -8.847656 113.385562 -6.644531 L 113.385562 6.644531 C 113.385562 8.847656 111.604312 10.628906 109.401187 10.628906 Z M 109.401187 10.628906 " transform="matrix(1, 0, 0, -1, 57.091, 39.375)"/>
</g>
<g fill="rgb(0%, 0%, 0%)" fill-opacity="1">
<use xlink:href="#glyph-0-1" x="160.976" y="41.519"/>
</g>
<g fill="rgb(0%, 0%, 0%)" fill-opacity="1">
<use xlink:href="#glyph-1-0" x="188.638" y="11.554"/>
</g>
<g fill="rgb(0%, 0%, 0%)" fill-opacity="1">
<use xlink:href="#glyph-1-0" x="193.069364" y="11.554"/>
</g>
<g fill="rgb(0%, 0%, 0%)" fill-opacity="1">
<use xlink:href="#glyph-1-0" x="197.490766" y="11.554"/>
</g>
<path fill-rule="nonzero" fill="rgb(100%, 100%, 100%)" fill-opacity="1" stroke-width="0.79701" stroke-linecap="butt" stroke-linejoin="miter" stroke="rgb(0%, 0%, 0%)" stroke-opacity="1" stroke-miterlimit="10" d="M -46.505063 38.976562 L -52.708188 38.976562 C -54.911313 38.976562 -56.692563 37.191406 -56.692563 34.992188 L -56.692563 21.703125 C -56.692563 19.5 -54.911313 17.714844 -52.708188 17.714844 L -46.505063 17.714844 C -44.305844 17.714844 -42.520688 19.5 -42.520688 21.703125 L -42.520688 34.992188 C -42.520688 37.191406 -44.305844 38.976562 -46.505063 38.976562 Z M -46.505063 38.976562 " transform="matrix(1, 0, 0, -1, 57.091, 39.375)"/>
<g fill="rgb(0%, 0%, 0%)" fill-opacity="1">
<use xlink:href="#glyph-0-2" x="5.769" y="14.313"/>
</g>
</svg>
