<?xml version="1.0" encoding="UTF-8"?>
<svg xmlns="http://www.w3.org/2000/svg" xmlns:xlink="http://www.w3.org/1999/xlink" width="116.088pt" height="22.057pt" viewBox="0 0 116.088 22.057">
<defs>
<g>
<g id="glyph-0-0">
<path d="M 3.65625 -3.984375 L 4.515625 -3.984375 C 4.71875 -3.984375 4.8125 -3.984375 4.8125 -4.1875 C 4.8125 -4.296875 4.71875 -4.296875 4.546875 -4.296875 L 3.71875 -4.296875 L 3.921875 -5.4375 C 3.96875 -5.640625 4.109375 -6.34375 4.171875 -6.46875 C 4.25 -6.65625 4.421875 -6.8125 4.640625 -6.8125 C 4.671875 -6.8125 4.9375 -6.8125 5.125 -6.625 C 4.6875 -6.59375 4.578125 -6.234375 4.578125 -6.09375 C 4.578125 -5.859375 4.765625 -5.734375 4.953125 -5.734375 C 5.21875 -5.734375 5.5 -5.96875 5.5 -6.34375 C 5.5 -6.796875 5.046875 -7.03125 4.640625 -7.03125 C 4.296875 -7.03125 3.671875 -6.84375 3.375 -5.859375 C 3.3125 -5.65625 3.28125 -5.546875 3.046875 -4.296875 L 2.359375 -4.296875 C 2.15625 -4.296875 2.046875 -4.296875 2.046875 -4.109375 C 2.046875 -3.984375 2.140625 -3.984375 2.328125 -3.984375 L 2.984375 -3.984375 L 2.25 -0.046875 C 2.0625 0.921875 1.890625 1.828125 1.375 1.828125 C 1.328125 1.828125 1.09375 1.828125 0.890625 1.640625 C 1.359375 1.609375 1.453125 1.25 1.453125 1.109375 C 1.453125 0.875 1.265625 0.75 1.078125 0.75 C 0.8125 0.75 0.53125 0.984375 0.53125 1.359375 C 0.53125 1.796875 0.96875 2.046875 1.375 2.046875 C 1.921875 2.046875 2.328125 1.453125 2.5 1.078125 C 2.828125 0.453125 3.046875 -0.75 3.0625 -0.828125 Z M 3.65625 -3.984375 "/>
</g>
<g id="glyph-1-0">
<path d="M 6.84375 -3.265625 C 7 -3.265625 7.1875 -3.265625 7.1875 -3.453125 C 7.1875 -3.65625 7 -3.65625 6.859375 -3.65625 L 0.890625 -3.65625 C 0.75 -3.65625 0.5625 -3.65625 0.5625 -3.453125 C 0.5625 -3.265625 0.75 -3.265625 0.890625 -3.265625 Z M 6.859375 -1.328125 C 7 -1.328125 7.1875 -1.328125 7.1875 -1.53125 C 7.1875 -1.71875 7 -1.71875 6.84375 -1.71875 L 0.890625 -1.71875 C 0.75 -1.71875 0.5625 -1.71875 0.5625 -1.53125 C 0.5625 -1.328125 0.75 -1.328125 0.890625 -1.328125 Z M 6.859375 -1.328125 "/>
</g>
</g>
<clipPath id="clip-0">
<path clip-rule="nonzero" d="M 3 0 L 41 0 L 41 22.058594 L 3 22.058594 Z M 3 0 "/>
</clipPath>
<clipPath id="clip-1">
<path clip-rule="nonzero" d="M 106 3 L 116.089844 3 L 116.089844 19 L 106 19 Z M 106 3 "/>
</clipPath>
</defs>
<path fill="none" stroke-width="0.79701" stroke-linecap="butt" stroke-linejoin="miter" stroke="rgb(0%, 0%, 0%)" stroke-opacity="1" stroke-miterlimit="10" d="M -63.781906 0.00165625 L -50.004562 0.00165625 " transform="matrix(1, 0, 0, -1, 64.278, 11.029)"/>
<path fill="none" stroke-width="0.79701" stroke-linecap="butt" stroke-linejoin="miter" stroke="rgb(0%, 0%, 0%)" stroke-opacity="1" stroke-miterlimit="10" d="M -23.4655 0.00165625 L -35.035812 0.00165625 " transform="matrix(1, 0, 0, -1, 64.278, 11.029)"/>
<path fill="none" stroke-width="0.79701" stroke-linecap="butt" stroke-linejoin="miter" stroke="rgb(0%, 0%, 0%)" stroke-opacity="1" stroke-miterlimit="10" d="M 21.261063 0.00165625 L 47.401688 0.00165625 " transform="matrix(1, 0, 0, -1, 64.278, 11.029)"/>
<path fill-rule="nonzero" fill="rgb(100%, 100%, 100%)" fill-opacity="1" d="M 24.859375 0.398438 L 18.65625 0.398438 C 16.457031 0.398438 14.671875 2.183594 14.671875 4.382812 L 14.671875 17.675781 C 14.671875 19.875 16.457031 21.660156 18.65625 21.660156 L 24.859375 21.660156 C 27.058594 21.660156 28.84375 19.875 28.84375 17.675781 L 28.84375 4.382812 C 28.84375 2.183594 27.058594 0.398438 24.859375 0.398438 Z M 24.859375 0.398438 "/>
<g clip-path="url(#clip-0)">
<path fill="none" stroke-width="0.79701" stroke-linecap="butt" stroke-linejoin="miter" stroke="rgb(0%, 0%, 0%)" stroke-opacity="1" stroke-miterlimit="10" d="M -39.418625 10.630563 L -45.62175 10.630563 C -47.820969 10.630563 -49.606125 8.845406 -49.606125 6.646188 L -49.606125 -6.646781 C -49.606125 -8.846 -47.820969 -10.631156 -45.62175 -10.631156 L -39.418625 -10.631156 C -37.219406 -10.631156 -35.43425 -8.846 -35.43425 -6.646781 L -35.43425 6.646188 C -35.43425 8.845406 -37.219406 10.630563 -39.418625 10.630563 Z M -39.418625 10.630563 " transform="matrix(1, 0, 0, -1, 64.278, 11.029)"/>
</g>
<g fill="rgb(0%, 0%, 0%)" fill-opacity="1">
<use xlink:href="#glyph-0-0" x="18.783" y="13.519"/>
</g>
<path fill-rule="nonzero" fill="rgb(0%, 0%, 0%)" fill-opacity="1" stroke-width="0.3985" stroke-linecap="butt" stroke-linejoin="miter" stroke="rgb(0%, 0%, 0%)" stroke-opacity="1" stroke-miterlimit="10" d="M -19.254562 0.00165625 C -19.254562 1.107125 -20.153 2.005563 -21.258469 2.005563 C -22.367844 2.005563 -23.266281 1.107125 -23.266281 0.00165625 C -23.266281 -1.107719 -22.367844 -2.006156 -21.258469 -2.006156 C -20.153 -2.006156 -19.254562 -1.107719 -19.254562 0.00165625 Z M -19.254562 0.00165625 " transform="matrix(1, 0, 0, -1, 64.278, 11.029)"/>
<g fill="rgb(0%, 0%, 0%)" fill-opacity="1">
<use xlink:href="#glyph-1-0" x="60.403" y="12.856"/>
</g>
<path fill-rule="nonzero" fill="rgb(0%, 0%, 0%)" fill-opacity="1" d="M 115.890625 11.027344 C 115.890625 9.921875 114.992188 9.023438 113.886719 9.023438 C 112.777344 9.023438 111.878906 9.921875 111.878906 11.027344 C 111.878906 12.136719 112.777344 13.035156 113.886719 13.035156 C 114.992188 13.035156 115.890625 12.136719 115.890625 11.027344 Z M 115.890625 11.027344 "/>
<g clip-path="url(#clip-1)">
<path fill="none" stroke-width="0.3985" stroke-linecap="butt" stroke-linejoin="miter" stroke="rgb(0%, 0%, 0%)" stroke-opacity="1" stroke-miterlimit="10" d="M 51.612625 0.00165625 C 51.612625 1.107125 50.714188 2.005563 49.608719 2.005563 C 48.499344 2.005563 47.600906 1.107125 47.600906 0.00165625 C 47.600906 -1.107719 48.499344 -2.006156 49.608719 -2.006156 C 50.714188 -2.006156 51.612625 -1.107719 51.612625 0.00165625 Z M 51.612625 0.00165625 " transform="matrix(1, 0, 0, -1, 64.278, 11.029)"/>
</g>
</svg>
